<svg id="图层_1" data-name="图层 1" xmlns="http://www.w3.org/2000/svg" viewBox="0 0 171.35829 172.52185"><defs><style>.cls-1{fill:#44b035;}.cls-1,.cls-2{fill-rule:evenodd;}.cls-2{fill:#fff;}</style></defs><title>画板 1</title><path class="cls-1" d="M26.35115,0h118.656a26.42842,26.42842,0,0,1,26.35114,26.35114V146.17072a26.42844,26.42844,0,0,1-26.35114,26.35114H26.35115A26.42845,26.42845,0,0,1,0,146.17072V26.35114A26.42843,26.42843,0,0,1,26.35115,0Z"/><path class="cls-2" d="M57.84691,27.70068a60.94211,60.94211,0,0,1,6.68381-.39371h.51874a61.68868,61.68868,0,0,1,6.70876.39371q1.336.15262,2.65266.3634,1.03917.16493,2.06619.36371.87247.16919,1.73477.3634.76836.17258,1.52846.36368.68841.1739,1.36827.36368.63185.17519,1.25717.36368.58507.17606,1.1642.3634.5468.17688,1.08765.36368.51318.17734,1.02135.36343.48555.17766.96631.36368.46092.17812.91757.36368.44.17853.87534.36365.42137.179.8382.3634c.26956.1199.5386.24042.80536.36371.25732.119.513.241.76819.36337q.372.17908.73956.36374.35971.1794.71631.36365c.23215.12018.4646.24036.69476.36371.22333.11935.445.24124.66614.3634q.32442.17986.64569.36365c.21066.12051.42123.24069.62988.36343q.30615.18027.60858.36365.2964.17995.5896.36374c.19308.12042.38666.24094.578.36365.1868.11963.37222.24155.55728.3634q.273.18027.54343.36368c.17831.12079.35742.24069.53378.3634.1723.11993.34213.2421.51251.36371q.25383.18068.5054.36365.24655.18031.49066.36371c.16016.1199.31973.24155.47821.3634.15729.12076.31464.24121.47.36368.1528.1199.303.24182.4541.36343.15024.121.30164.24121.45016.36365.14539.11993.28824.24237.432.36371.14316.12076.28683.24121.42828.36365.13922.11993.2764.24179.41388.3634.1369.12076.27356.24152.40845.36371.13354.12018.26532.24179.39713.3634q.19606.18109.3898.36371.19176.18063.3804.36365.18755.18118.37277.36371.18324.18068.36423.3634.17944.18114.35663.3634.1756.18109.34894.36368.17175.18114.34158.36365.16832.18077.33392.36374.16452.18114.32764.3634.16077.18114.31921.36365.1582.18114.31433.36343c.1026.12045.20386.24237.30533.36365.10092.121.20236.24179.30185.36371.09839.12045.19449.24237.29141.36368.097.12106.19534.24152.29059.36337.09406.12051.18536.24271.278.36374.09271.12131.18655.24176.27811.36368.09012.12018.1774.24234.26617.3634s.1777.24179.265.36365c.08649.12076.17123.24237.25629.36374q.12717.18109.252.36334.12415.18118.24664.36374c.08109.12073.16016.242.23978.36337.07941.12131.15991.24182.23782.36368.07712.12048.15167.24234.22739.36371s.15274.24152.22733.36365c.0737.12051.14484.2421.2171.36343.07233.12073.14462.24179.21545.36371q.10547.18109.2095.36334c.06857.12079.136.24237.20322.36374.06744.12128.13608.24179.20215.36365.06543.12048.1275.24237.19189.36368.06378.121.129.24182.19189.3634.06207.12079.12216.24237.18314.36371q.09137.18109.18054.3634c.05927.121.119.24207.17688.36368.05756.12073.11282.24234.16895.36368.05643.121.11426.24182.16925.36368.05472.12051.10629.24237.15958.36343.053.121.106.24207.15787.36365.05161.121.10349.2421.15393.3634.0499.12076.09808.24268.14685.36371.049.12134.09949.24176.14713.36365.04706.12076.09155.24237.13748.36371q.0688.18155.13577.3634.0672.18155.13266.36371c.04279.12076.08334.24237.125.3634.04169.12128.08505.242.12558.36365.04025.12076.078.24237.11707.36371q.05827.18155.1145.36365c.03741.12109.07626.24185.11255.36343.036.12076.06946.24265.104.36368.03488.121.07056.2421.104.3634.03345.12106.06577.24234.09781.36371.03232.121.06293.24237.09381.36365.03091.12106.06406.24182.09354.36343.02951.12076.0553.24265.08365.36365.028.12106.05609.24213.083.36371.01758.07852.03683.157.05414.23584v.00253c-.92352-.10318-1.85156-.18622-2.78418-.23837-.70984-.04-1.42215-.0621-2.13818-.0621q-1.22035,0-2.42218.0621-2.00015.10121-3.94617.3634-1.15265.15518-2.28442.36368-.88994.165-1.76538.36371c-.50458.114-1.00632.23358-1.50323.36337q-.65863.1718-1.30765.36371-.59267.1739-1.17719.36365-.543.17523-1.07861.3634-.50217.17647-.998.36368-.46861.17688-.93149.36374-.44009.17729-.87564.36365-.41579.17816-.8277.3634c-.26331.11908-.52609.23953-.78662.36371-.2489.1185-.49521.24063-.74094.36337q-.3576.17862-.71008.36371-.3436.17944-.68289.36365c-.22025.12-.44077.24014-.65848.36374-.20978.11877-.41754.24118-.62506.3634q-.30441.17935-.60461.36365c-.19672.12018-.39343.24042-.58789.36343-.18881.11963-.37589.24149-.56244.36365-.1828.11963-.36423.24155-.5448.36371-.17828.12045-.35687.24063-.5329.36368-.171.11932-.3396.24179-.50824.36337-.167.12051-.33282.24127-.4975.36374q-.24319.18022-.48389.36337c-.15646.11993-.31123.24179-.466.36371-.15363.121-.30815.24063-.45978.36365-.148.11963-.29283.24213-.43881.36371-.14482.12045-.29.241-.43314.3634-.14059.12018-.27919.24176-.41783.3634q-.20579.18068-.4093.36368-.20071.18068-.39827.36368-.1956.18073-.38779.3634c-.127.12073-.254.24152-.37955.36371-.1236.12018-.24577.242-.368.36365-.121.12076-.24207.24152-.36169.36343-.11792.12045-.23358.24207-.34979.36365-.11539.121-.23074.24155-.34468.36374-.11227.12018-.22255.242-.33308.36365-.10971.12076-.2197.24152-.32828.3634-.10687.12048-.21231.2421-.31775.36371q-.15731.18114-.31294.36337c-.102.12048-.20294.2421-.30388.36371q-.14967.18109-.29736.36365-.14623.18114-.29082.36374c-.09525.12042-.18906.24179-.2829.3634-.09325.12073-.1868.24149-.27864.36365-.0907.12048-.17944.24207-.26874.36343s-.1797.24149-.2673.36365c-.08646.12018-.17036.24237-.25542.36371s-.17117.24149-.25508.36365c-.0825.12021-.16272.24237-.2438.3634s-.16214.24185-.24179.36374c-.07909.12042-.15675.242-.23442.36337-.0771.12076-.15334.24234-.229.36371-.07539.121-.15137.24179-.22562.36365-.07315.12051-.14458.24237-.21658.36371-.072.121-.14569.24152-.21657.36337-.06972.12048-.13663.24265-.20522.36368-.06833.12076-.13721.24185-.2041.36343-.06662.12076-.13239.24237-.19786.36368q-.09734.18109-.19218.36371c-.06378.121-.12869.24146-.19106.36365-.06152.12051-.12019.24237-.18057.3634-.0601.12106-.12161.24182-.18057.36368-.05867.12079-.11565.24213-.17291.3634-.05724.12076-.11339.24237-.16922.36371s-.11253.24182-.167.36365c-.05414.12051-.10516.24237-.1579.36343-.053.12106-.10657.24182-.15816.36368-.05132.12079-.10063.24237-.15053.36371q-.07439.18109-.14684.3634c-.04846.12128-.09836.24179-.14542.36365-.04678.12076-.09042.24237-.13606.36371-.04564.121-.09184.24176-.13634.3634q-.06592.18155-.12982.36368c-.04282.12073-.08392.2421-.12558.36368-.04138.12134-.08505.24179-.12531.3634-.04.12048-.07651.24268-.11508.36371-.03883.121-.07767.24207-.11508.36365-.03741.12106-.0751.24179-.11111.36343-.036.12073-.06975.24234-.10461.36365-.03485.12106-.07086.24179-.1046.36371-.03343.12079-.06491.24207-.09721.3634q-.04807.18155-.09412.36368c-.03088.12134-.06406.24179-.09409.36371-.02951.12045-.05559.24261-.08392.36365-.02837.12076-.057.24185-.0842.36343-.02719.121-.05472.24207-.0808.36368-.02577.12073-.0493.24234-.074.36337s-.05017.24213-.074.36371q-.03484.18155-.06775.36368c-.02209.12076-.04306.24237-.06406.36371-.021.121-.04422.24176-.06407.36337-.01984.12076-.03685.24237-.05556.36371q-.02763.18155-.05386.3634c-.01755.12134-.03712.24207-.05328.36368-.01614.12073-.02919.24265-.04422.36371s-.03.242-.04395.36368c-.01389.121-.0289.242-.04166.3634-.01248.12076-.02267.24237-.034.36365-.01163.121-.02383.2421-.03432.3634-.01021.12134-.02042.24237-.02977.36371-.00935.121-.01642.24237-.02437.36365-.00822.12109-.01759.24185-.02437.36343-.00711.12106-.01276.24237-.01843.36368-.006.12076-.00993.24234-.01447.36371-.00482.12128-.011.242-.01474.3634-.0034.121-.00482.24234-.0071.36365-.00226.12106-.00368.24237-.0051.36368-.00113.12106-.00482.24213-.00482.36371l-.00056.03745q0,.16319.00169.326.0013.182.00511.3634c.002.12161.0054.24261.00879.36368q.00552.182.01247.36368c.00511.12134.01021.24265.01616.36371q.00893.18192.02013.36365.01064.18205.02354.3634.01273.18205.02719.3634c.00964.12161.01956.24268.03061.36371q.0162.182.03461.36371.01783.18192.038.36365.02.182.04167.3634.02172.182.04536.36371.02339.18192.049.3634.02552.18237.05246.36365.02721.182.05611.36368.02934.18205.05981.36374.03106.18192.06323.3634.03271.18192.06717.36365.03447.182.07031.3634.03653.18246.07425.36368.03786.182.07739.36371.04.182.08134.36365.04168.18205.08476.3634.0434.18242.08844.36374.04507.18192.09186.36337.0472.18242.09552.36371.04889.18192.09894.36365.05056.182.1026.36371l.05954.20605c-.85919.06747-1.72263.12161-2.58975.15735q-1.08765.04463-2.18324.0462-1.06171,0-2.08092-.0462c-1.4346-.06378-2.81564-.19049-4.176-.3634-.83-.10574-1.65231-.22794-2.47406-.36371q-1.02431-.16924-2.05173-.36365-.92862-.174-1.86972-.36371-.8857-.17729-1.79037-.36337-.87547-.17944-1.77562-.36374-.83128-.16924-1.68889-.33929l-.67693.33929-.72481.36374-.72539.36337-.7251.36371-.72511.36365-.7251.36371-.7251.3634-.7251.36365-.72539.36343-.72511.36368-.7251.36371-.72539.36365-.72482.3634-.7251.36371-.72539.36337-.7251.36371-.7251.36368-.7251.36371-.72511.3634-.7251.36365-.72511.36343-.72539.36365-.7251.36374-.7251.36337-.51646.25909.08617-.25909.12076-.36337.121-.36374.12074-.36365.121-.36343.121-.36365.12076-.3634.12074-.36371.121-.36368.12076-.36371.12106-.36337.12073-.36371.12076-.3634.12106-.36365.12073-.36371.121-.36368.12077-.36343.121-.36365.12076-.3634.121-.36371L31.5,113.144l.121-.36371.12076-.36337.12074-.36374.121-.3634.121-.36365.12076-.36371.121-.36368.12076-.3634.12106-.36365.12076-.3634.12073-.36374.12106-.36368.12076-.36365.121-.3634.12076-.36371.121-.3634.12077-.36365.12076-.36371.121-.36371.12076-.3634.121-.3634.07059-.21231c-.072-.05014-.14287-.1012-.21431-.15134q-.25719-.18114-.51193-.36371-.25253-.18114-.50258-.36368-.24747-.18109-.49239-.36368-.24319-.18118-.483-.3634-.23854-.18109-.47424-.3634-.23424-.18109-.46573-.36371-.22961-.18114-.4575-.36368c-.15053-.121-.30077-.24207-.4493-.36365q-.22153-.18118-.44022-.3634-.21725-.18114-.4317-.36371-.213-.18114-.4238-.36368-.2092-.18114-.41612-.36343-.20581-.18155-.40933-.36365-.20153-.18118-.40025-.36371c-.13181-.12073-.26219-.24179-.39259-.3634q-.19389-.18114-.38551-.36365-.19048-.18114-.379-.3634-.18668-.18159-.37164-.36368c-.12189-.12079-.24237-.24213-.36284-.36371q-.17983-.18114-.35689-.36368-.176-.18114-.35034-.3634c-.11539-.12106-.23074-.2421-.34442-.36371-.11282-.12076-.22394-.242-.33533-.36337q-.16585-.18118-.32941-.36371c-.10855-.121-.21684-.24207-.3237-.36368-.10631-.12076-.21259-.2421-.31749-.36371-.10429-.12076-.20692-.242-.30954-.36337q-.1531-.18155-.30415-.36368c-.10007-.12106-.20013-.2421-.29877-.36343q-.14713-.18155-.29141-.36365c-.09581-.121-.19049-.2421-.28516-.36371q-.14076-.18114-.28006-.36368c-.09213-.12073-.18427-.2421-.27469-.3634-.09013-.12073-.17828-.24234-.26674-.36371q-.13225-.1815-.2625-.36365c-.08617-.12106-.17262-.24182-.25739-.36343q-.12625-.18114-.25-.36365c-.08249-.12076-.16412-.24237-.24493-.36371-.08078-.121-.16156-.24179-.24094-.3634q-.11819-.1815-.23357-.36368-.11565-.18159-.22849-.36368-.11309-.18118-.2245-.3634-.11009-.18155-.21826-.36371c-.07172-.12076-.142-.24237-.21231-.36365-.07-.12106-.14-.24213-.20862-.3634-.06833-.12106-.1355-.2421-.2027-.36371q-.09949-.18155-.197-.36368c-.06493-.12106-.13013-.24182-.1936-.36343q-.09485-.18155-.1871-.36365-.0927-.18114-.18253-.36371c-.06012-.121-.12021-.242-.17889-.3634-.05838-.12076-.11537-.242-.17235-.36368q-.08544-.18109-.16835-.3634c-.0553-.121-.11086-.242-.1647-.36365-.05386-.12076-.10574-.24237-.1579-.36371q-.07823-.18114-.15448-.36368c-.05075-.12106-.1012-.24179-.15024-.36343-.049-.12073-.09665-.242-.14429-.36368q-.07146-.1815-.14117-.36337c-.0462-.121-.09126-.2421-.136-.36371q-.06679-.1815-.13126-.36365c-.04309-.12109-.08675-.24213-.12869-.36371-.04138-.12079-.08136-.24207-.12189-.36337q-.06-.18159-.1185-.36374-.05823-.18155-.11508-.3634c-.03714-.121-.07312-.24234-.10942-.36365-.036-.12106-.072-.2421-.10657-.36371-.03459-.12076-.06775-.24207-.10091-.36365q-.04976-.18159-.09781-.36343c-.03175-.12106-.06351-.24207-.09412-.36365-.03032-.12106-.05925-.24237-.08844-.3634s-.05838-.24213-.08618-.36374c-.02777-.121-.05414-.24234-.08049-.36365q-.04-.18159-.07738-.36371c-.02524-.121-.05017-.24207-.074-.36337-.02383-.121-.04623-.24237-.0686-.36371-.0224-.121-.04565-.24207-.06689-.3634-.021-.121-.04056-.24237-.06068-.36365q-.02975-.18164-.05809-.36374-.02808-.1815-.05414-.36365-.026-.18114-.04991-.36343c-.01616-.121-.03259-.242-.04762-.36365-.01474-.121-.028-.24237-.04166-.36371-.01363-.121-.0275-.24182-.04-.3634-.01219-.121-.02324-.24237-.03458-.36368q-.017-.18159-.032-.36368-.01492-.18155-.02837-.3634c-.00879-.12079-.01645-.2421-.02411-.3634s-.01558-.24234-.0218-.36371c-.00653-.121-.01108-.24237-.01645-.36365-.0051-.12106-.01077-.24213-.015-.36371-.004-.12076-.00655-.2421-.00937-.36337-.00311-.12137-.00537-.2424-.00764-.36374-.00142-.121-.002-.24234-.00282-.36337-.00031-.06235-.00172-.12415-.00172-.18649,0-.05927.00227-.11792.00255-.17719.00058-.12158.00369-.24234.0054-.36371s.00256-.24261.00537-.36365.00511-.24237.00937-.36343c.004-.12161.011-.24265.01614-.36365.00511-.12137.00993-.24237.01616-.3634.00624-.12137.01161-.243.019-.36374.00737-.12158.01817-.24234.02693-.36365.00851-.12131.017-.24268.02693-.36371s.01758-.24261.02893-.36337c.011-.12192.0255-.24237.03769-.36371s.02437-.24265.0377-.3634c.01332-.121.02466-.24292.03912-.36365.01474-.12161.03259-.24237.04846-.36374s.032-.24258.04875-.36368c.017-.121.03148-.24265.04961-.3634.01814-.12186.04025-.24237.05954-.36365.01956-.12134.03912-.24268.05954-.36371.02068-.121.03882-.24289.06036-.36337.02182-.12164.04791-.2424.07086-.36371s.0462-.24265.07059-.36368c.02411-.121.0462-.24265.07172-.3634.02551-.12192.055-.24234.08163-.36371s.05357-.24261.08163-.36365.05417-.24268.08334-.36343c.02921-.12189.06207-.24234.0927-.36365s.061-.24265.09268-.36371c.03206-.12106.06236-.24268.09554-.3634.03317-.12186.06973-.24237.104-.36368.03458-.12131.0686-.24268.10431-.36343.03574-.12128.07086-.24289.10771-.36365.03716-.12161.0771-.24237.11537-.36371.03827-.121.076-.24265.11537-.36365.04-.12137.07994-.24265.12076-.3634.04111-.12192.08476-.24268.12727-.36371.04224-.121.08334-.24265.127-.3634.04395-.12158.089-.24261.13409-.36371.04535-.12158.09241-.24261.13889-.36365s.091-.243.13861-.36371c.0482-.12161.09894-.24207.14827-.3634q.07441-.18237.15051-.36365c.05077-.12106.09921-.24292.15108-.36343.05244-.12216.10886-.24234.16243-.36368.05386-.12134.10771-.243.16273-.36368.05527-.12131.10968-.24292.16609-.36368.057-.12161.1165-.2421.17491-.3634.05811-.12134.11563-.24292.17488-.36371.05983-.12158.12076-.24237.182-.3634.06151-.12158.12444-.24261.18736-.36368.06264-.121.12331-.24323.18739-.36365.06461-.12195.13266-.2424.19868-.36374.06633-.12128.13268-.24261.20012-.36334.06747-.12137.13466-.24323.20355-.36371.06943-.12189.14172-.24234.21259-.36343.07115-.12128.1409-.24319.21317-.36365.07285-.12192.14769-.24265.22166-.36371q.11183-.18242.22621-.36368c.076-.12106.15022-.24292.22763-.36337.07822-.12219.15985-.24237.23953-.36374s.15872-.24292.23981-.36334q.12286-.18242.24773-.36374.12586-.18242.25371-.36365c.08533-.12106.16866-.24323.2551-.36371.08762-.12186.17889-.24207.2679-.36337s.17744-.24323.26787-.36374c.09155-.12158.18454-.24261.27751-.36337q.14033-.18242.28262-.36368c.095-.12131.18965-.24319.2863-.36371.09778-.12216.19843-.24237.29791-.36365.09921-.12106.19672-.24323.29735-.36343.10234-.12213.20778-.24234.31181-.36365s.20778-.243.31323-.3634q.16031-.18288.32257-.36374c.10886-.12186.21913-.24289.32939-.36365.1114-.12131.222-.24319.33449-.36368.11426-.12189.23045-.2424.34613-.3634.11592-.121.22989-.24353.34723-.3634.11963-.12247.24237-.24268.36369-.36371.12131-.12131.24094-.24347.36368-.36365.125-.1225.25285-.24237.37956-.36371.127-.12134.25314-.24347.38153-.3634.13068-.12244.26363-.243.396-.36371.13293-.12161.26587-.24319.40051-.3634.13663-.12216.275-.24289.4133-.36365.13947-.12192.27893-.24353.42009-.36371.14343-.12219.288-.24292.43286-.36365.14626-.12161.29311-.24323.44109-.36343.15021-.12247.30215-.24323.4541-.36368.15363-.12158.30725-.2435.4626-.3634.15788-.12244.318-.24292.47792-.36371.16129-.12161.3226-.24377.4856-.36365.16666-.12247.33533-.24292.504-.36371.16951-.12131.33818-.244.50938-.3634.17633-.123.35574-.24292.53378-.36368.17914-.12161.35773-.24408.53883-.3634.186-.12271.37447-.24323.56242-.36365q.28571-.18329.574-.36374.29427-.18324.59132-.36365c.20325-.12274.40817-.24326.61371-.36343.20776-.12186.41525-.24432.62531-.36365.21684-.123.436-.24323.65536-.3634q.33508-.18416.67438-.36371c.23016-.12186.45949-.24463.69223-.36365.24149-.1236.48584-.24323.72992-.36374q.37459-.18448.75343-.36337c.2588-.12244.51788-.24493.77983-.36371q.40688-.18489.81834-.3634c.28488-.12387.572-.24432.86-.36365q.4473-.18585.9-.36368.4707-.18544.94621-.36368.49747-.1859.99977-.36343.52982-.18668,1.065-.36368.56806-.18713,1.14265-.3634.61526-.18878,1.2379-.36368.67433-.19006,1.35724-.36368.74876-.19176,1.50772-.36368.84785-.19308,1.70618-.3634,1.01793-.20027,2.05228-.36371,1.31387-.21,2.64984-.3634Zm42.72464,58.424a5.11316,5.11316,0,1,0,0,10.22632c3.8667,0,6.3989-2.52682,6.3989-5.11261,0-2.54974-2.53244-5.11371-6.3989-5.11371Zm28.11966,0a5.11328,5.11328,0,0,0,0,10.22632c3.83218,0,6.39954-2.52682,6.39954-5.11261,0-2.54974-2.56735-5.11371-6.39954-5.11371ZM48.16716,49.0433c-3.83157,0-7.69891,2.53159-7.69891,6.3768,0,3.83615,3.86734,6.39954,7.69891,6.39954a6.03794,6.03794,0,0,0,6.38135-6.39954,6.01537,6.01537,0,0,0-6.38135-6.3768ZM83.94577,61.81964a6.04285,6.04285,0,0,0,6.39949-6.39954,6.02035,6.02035,0,0,0-6.39949-6.3768c-3.8313,0-7.67651,2.53159-7.67651,6.3768,0,3.83615,3.84521,6.39954,7.67651,6.39954Zm-1.46068,15.904c.11053-.10376.22278-.20636.33475-.309.11255-.10318.22452-.20663.33847-.309.116-.10373.23387-.20605.3512-.30869.11792-.10318.235-.20694.35435-.309.12161-.104.24518-.20578.36848-.30865.12361-.10318.246-.207.37106-.309.12756-.104.25769-.20609.38666-.30872.12982-.10318.25909-.20688.39032-.309.13376-.104.27014-.20609.40594-.309.13663-.10318.27264-.20667.41074-.30872.14111-.104.28372-.20636.42633-.309q.21593-.15518.43454-.30865.22238-.15569.44757-.309.2292-.15564.46063-.30872c.15649-.10345.31268-.20721.47058-.309.16183-.10434.32623-.20636.49011-.30872.16522-.10342.33023-.20746.49747-.309.1723-.10428.34665-.20636.52072-.30869q.26573-.156.53406-.309c.182-.10379.364-.20749.54822-.309.19019-.10461.38263-.20663.57486-.30869q.29338-.15605.58932-.309c.20291-.10379.40588-.20721.61084-.30872.21259-.10489.42719-.20667.64209-.309q.33-.15642.66382-.30869c.22852-.10431.45755-.208.68854-.309q.36191-.15729.72827-.30865c.25339-.10544.50909-.20779.765-.309q.39977-.15779.804-.30872.42261-.15816.84982-.309.44939-.15857.90393-.30893.48216-.159.97034-.30872.52208-.16031,1.05048-.309.57147-.16109,1.15118-.30865.63483-.16283,1.27872-.309c.47845-.10886.95953-.21317,1.4451-.30872.57855-.11365,1.16306-.21512,1.751-.30893q1.11694-.17867,2.25491-.30872a52.151,52.151,0,0,1,5.77933-.3356h.27295a47.71881,47.71881,0,0,1,5.504.3356q1.0919.13014,2.17053.30872c.5675.09381,1.13269.19528,1.694.30893.47052.09555.93823.19986,1.40427.30872q.62627.14667,1.24664.309.56515.1479,1.1254.30865.517.14923,1.02951.309.47923.14964.95358.30872.44728.15005.89038.30893.42178.15056.83905.309.39926.151.79453.30872c.25372.1012.50684.20355.7583.309q.36305.15179.72284.30865c.22961.101.45721.20468.68484.309q.33206.15179.661.30869c.214.10208.42773.2041.6398.309.20465.1015.4079.20493.61057.30872q.29677.15216.5896.309c.19247.10205.38522.20407.57571.30869.18454.1015.36765.2052.55023.309q.26958.153.536.309c.1749.10233.35007.20441.52332.30869.16837.1015.33447.20554.50113.309.16528.10236.33051.20438.49411.30872.15927.10175.31662.20551.47452.309q.23387.15312.46542.30872.22746.15349.45267.309.2211.153.43967.30865c.14429.10263.28912.205.432.309.14.10205.27835.20554.417.30872.13745.10287.27579.20493.4119.309.13345.10208.26471.20578.39685.309.13123.10263.26328.20471.39316.30872.127.102.25229.20581.37814.309.12527.10287.25113.20465.37527.30865.12161.10205.24124.20581.36145.309.1196.10263.24008.205.35828.30869.11652.10233.231.20578.34613.309.1145.10263.229.20523.34213.309.11139.10236.22165.20554.33194.30872q.16457.15395.32684.309.16068.15349.31918.30872.15688.15349.3118.309c.10263.10284.20581.2052.30725.30865.1001.10236.19846.20578.29736.309s.19925.205.29678.309c.09579.10178.18881.20578.28345.30865s.19025.20526.28348.309c.09213.10233.18225.20578.27325.309q.13568.15395.2699.30872.13307.15395.26447.30869c.08646.10236.17178.20581.25711.309.08527.10287.17175.205.25592.30865.08276.10236.163.20612.24463.309s.16385.20523.24435.309q.11952.1539.23645.309.11732.15349.23215.30865c.07651.10294.15417.20526.22989.309.07455.10208.14655.20578.22.30872s.14767.20523.21994.309c.07144.10229.14148.20547.21173.30865q.10547.1539.2084.309c.06888.10287.13889.2052.2066.30869.06689.10233.13123.20609.197.309s.13208.20554.197.309c.06406.1026.127.20554.19022.30872.06259.1026.12412.20581.18564.309.06149.10291.12527.20523.1857.30872.05975.10233.11618.20605.1749.309q.088.15395.17459.30869c.05725.10291.11481.20554.1709.309.05557.10236.10913.20581.16388.309.05472.10284.11026.2052.16385.30865.053.1026.10489.20578.157.309.05191.10236.10236.20557.15308.30875s.10345.20523.15308.309c.049.10229.09521.20581.14346.30869.04785.1026.09579.20554.14258.309.04672.10257.09467.2052.14059.30865.045.10233.08786.20581.13235.309.04425.10294.08926.20554.13239.30872q.06464.15431.12787.309c.04166.1026.0816.20575.12213.30893.04056.10263.08252.20526.12216.30872.03943.10263.07742.20581.11566.309.03827.1026.07516.20578.112.30865.03738.10294.07623.20554.11221.309.03577.10236.06921.20581.104.30869.03461.10294.06836.20578.10208.309.03342.10294.06943.20557.10205.30875.03229.10284.06152.206.09268.309s.06207.20581.0921.30865c.03037.10321.06238.20557.09155.309.029.10257.05475.20605.08252.309.02777.1026.05527.20578.08218.30865.02667.10318.0553.20554.08078.309.02582.10236.04819.20609.0726.30872.02463.10284.049.20578.07257.30893.02353.10294.04816.20551.07059.30872.02237.1026.04166.20605.06293.309s.04224.20578.06262.30865c.02014.10318.04141.20581.06064.309.019.1026.03491.20605.05273.309.01816.10287.03632.20551.053.30865.017.10318.03516.20581.051.309.01563.1026.02838.20612.0434.30872.01474.10287.02975.20581.04337.309.01358.10287.02863.20578.04135.30865.01248.10294.02213.20609.03348.309.01163.10287.02325.20578.03375.30865.01044.10318.02237.20581.032.309.00934.1026.01587.20609.02411.309.00848.10294.01669.20554.024.30872.00742.10287.01648.20581.023.309.006.10263.009.20609.01413.30872.00543.10287.01053.20578.0145.309.00424.10318.01077.20581.01389.309.00311.1026.00284.20578.00479.30865q.00343.1544.0051.309l.00116.08984v.57941c-.00116.0856-.00168.17151-.004.25711-.00256.10318-.006.20605-.00967.309q-.00549.15472-.01245.30893c-.00513.10318-.01022.20581-.01617.30872-.006.10318-.01328.20605-.02066.309-.00711.10287-.01364.20605-.02209.30865-.00879.10318-.019.20612-.02863.309-.00995.10291-.01959.20578-.03064.30872-.0108.10315-.02295.20605-.03488.30893-.01215.10318-.02521.20612-.03851.309-.01364.10294-.02667.20612-.04141.30872-.01443.10318-.03061.20581-.04648.309-.01614.10284-.03177.20578-.04877.30865-.017.10321-.03543.20609-.05356.309q-.02724.15477-.0567.309-.0293.15431-.06009.30865c-.021.10318-.04309.20581-.06519.309-.02182.10294-.04367.20609-.06692.30872-.02322.10315-.04788.20609-.07227.309q-.037.15436-.07541.30872-.03827.15477-.0788.309c-.02664.10287-.055.20581-.08337.30869-.028.10318-.05609.20609-.0856.309-.02948.10321-.06033.20609-.091.309q-.04628.15427-.09406.30865c-.032.10318-.06409.20612-.09723.309-.03348.10291-.06805.20578-.10239.30872-.03455.10318-.06912.20605-.10483.309q-.054.15472-.10944.30869-.05566.15482-.11337.309c-.03827.10287-.07626.20605-.11566.30865-.03967.10318-.08078.20612-.12158.309-.04111.10294-.08221.20612-.12421.30872q-.06331.15477-.12811.309c-.04337.10315-.08789.20605-.13269.30893s-.08926.20612-.13516.30872c-.0462.10318-.09329.20605-.14032.309q-.071.15477-.144.30865c-.04849.10318-.097.20612-.14658.309-.05014.10321-.10144.20609-.1525.30872q-.077.15472-.1553.309c-.05273.10291-.10519.20609-.159.30872-.05389.10342-.10913.20605-.16412.309s-.11029.20605-.16672.30869q-.08459.15477-.17117.309c-.05783.10321-.11679.20609-.17606.309-.05893.10284-.11816.206-.17859.30865-.06064.10349-.12186.20612-.18365.309q-.09311.15477-.18768.30875c-.06317.10318-.1264.20633-.19073.309-.06464.10315-.1304.20609-.19617.30869-.066.10345-.13293.20605-.19986.309-.06747.10318-.13467.20605-.20322.30865q-.10291.15477-.20837.309-.10547.15518-.21259.30872-.10716.15477-.21573.309-.10968.15472-.22079.30893-.11142.15477-.2254.30872-.11343.15477-.22845.309-.116.15477-.23328.30865c-.07883.10345-.15875.20612-.2384.309-.0802.10321-.16046.20639-.24179.309-.08163.10318-.1633.20605-.24606.30865-.083.10318-.16751.20612-.25168.309q-.12675.15477-.2554.30872c-.08621.10318-.17206.20633-.25912.309q-.13179.15472-.26471.30869-.13394.15518-.26959.309-.13568.15477-.27325.309c-.09213.10318-.18427.20605-.27753.30865-.09412.10349-.18878.20612-.28375.309-.09552.10321-.19107.20609-.28772.30869q-.14539.15477-.29169.309-.148.15477-.29736.309-.15051.15477-.30246.30872-.15262.15477-.3067.30869-.15518.15518-.31122.309-.15775.15477-.31689.309-.16031.15477-.32263.30865-.16237.15477-.32709.309-.165.15477-.33167.30872-.168.15477-.33734.309c-.11392.10345-.22845.20605-.34357.30893q-.17345.15523-.34805.30872-.17606.15518-.35352.309-.17853.15477-.35831.30865-.1815.15518-.36481.309-.18452.15477-.37073.30869-.18759.15523-.37646.309-.19048.15523-.38214.309-.19254.15477-.38718.30872-.19606.15518-.39349.309-.19936.15518-.40048.30869-.20284.15514-.4068.309l-.14117.10684.06067.20181.093.309.093.30875.093.30893.093.309.093.30872.093.309.093.30865.09268.309.093.30865.093.309.093.30872.093.309.093.30865.093.309.093.309.093.30865.093.309.093.30872.093.309.093.30872.093.309.09268.30865.09329.309.09268.30872.093.309.093.309.093.30872.093.309.093.30869.093.309.09265.30865.093.309.093.30872.093.309.093.30893.093.30872.093.309.093.30865.093.309.093.309.066.22028-.40167-.22028-.56412-.309-.56409-.309-.56351-.30865-.56409-.309-.56357-.30872-.56406-.30893-.56384-.309-.56381-.30872-.56409-.309-.56351-.30865-.56409-.309-.56381-.30869-.56384-.309-.56406-.30872-.56354-.309-.56412-.309-.56378-.30872-.56381-.309-.56381-.30865-.56409-.309-.56357-.30872-.56378-.309-.56412-.30872-.56378-.309-.08875-.04846-.19363.04846q-.61775.15527-1.23587.309-.62759.15605-1.25546.30872-.64673.15733-1.294.309-.679.159-1.35809.30872-.73045.16113-1.46124.309-.8177.165-1.63446.30865-.98987.17349-1.97858.309c-1.06586.1449-2.13083.25143-3.19409.30872q-.86783.04674-1.73367.04791-1.13315,0-2.2507-.04791c-1.298-.055-2.57812-.16046-3.841-.30872q-1.11658-.13092-2.21356-.309-.86824-.14072-1.7243-.30865c-.48306-.09555-.9621-.19959-1.43829-.309q-.63991-.1463-1.27191-.30872-.57573-.14841-1.14493-.309-.52592-.14886-1.046-.30872-.4856-.14964-.96545-.309-.45287-.14964-.9003-.30865-.426-.15051-.84644-.309-.40265-.15143-.80075-.309-.38315-.15138-.76227-.30865c-.2438-.10178-.48758-.20355-.72849-.309-.23077-.10065-.45868-.20468-.68655-.30872q-.33247-.15179-.661-.309c-.21405-.10175-.42773-.204-.63919-.30865q-.30743-.15225-.612-.309c-.197-.10114-.3923-.20462-.58734-.30865-.19131-.10233-.38327-.20438-.57257-.309q-.2764-.15266-.54907-.30872-.26752-.153-.5318-.309c-.17407-.1026-.34863-.20407-.52072-.30893-.167-.10126-.33109-.20554-.49579-.30875-.16327-.10233-.32681-.20462-.4884-.309-.1579-.10178-.31464-.20523-.47086-.30865q-.23085-.15308-.45889-.309c-.15-.10236-.29993-.20465-.44815-.30869-.14545-.10208-.28891-.20554-.43262-.309-.14255-.1026-.2854-.20468-.4263-.30872-.13776-.10178-.27325-.20581-.40961-.309-.1355-.10287-.27216-.20489-.40622-.309-.131-.10175-.25906-.20551-.38834-.30869s-.25937-.205-.38721-.309c-.12445-.10178-.24632-.20581-.36937-.30865-.123-.10318-.24744-.205-.369-.309-.11877-.10175-.23473-.20578-.35207-.30872s-.23557-.20493-.3515-.30893c-.11368-.10208-.22479-.20581-.33707-.309-.11194-.1026-.22421-.205-.33475-.30872-.10857-.102-.21544-.20581-.32259-.309-.10687-.1026-.214-.20523-.31947-.30865-.104-.10236-.20692-.20581-.30981-.309-.10178-.1026-.20352-.20554-.30414-.309q-.14971-.15353-.29765-.30869c-.09753-.10233-.19362-.20578-.28969-.309-.09583-.10294-.19247-.205-.2869-.30872-.09323-.10205-.184-.20605-.27582-.309-.09155-.10287-.1848-.20493-.27521-.30869-.089-.10233-.17575-.20605-.26364-.309s-.17575-.20517-.26221-.309q-.1284-.15344-.25453-.30865-.12586-.15395-.24916-.309c-.08221-.1026-.16527-.205-.24663-.30869-.08-.10233-.15733-.20612-.23613-.309s-.15874-.20493-.23615-.30872c-.07678-.10233-.15164-.20581-.22734-.309q-.11268-.1539-.22362-.30865c-.07372-.10294-.148-.20554-.22055-.309-.07172-.10236-.14145-.20581-.21231-.309-.0706-.10287-.14259-.2052-.212-.30865-.06862-.10233-.13524-.20581-.20271-.309q-.10071-.1539-.20038-.30872c-.06578-.10287-.13266-.20547-.1973-.30893-.06436-.10236-.12614-.20581-.18936-.309-.06294-.10294-.127-.20493-.18906-.30872-.06123-.10233-.12106-.20581-.18144-.309-.0598-.10229-.119-.20547-.178-.30865s-.11932-.20523-.17715-.309c-.057-.102-.11113-.20605-.16725-.30869-.05614-.10294-.11224-.20551-.16724-.309q-.08164-.15395-.1627-.30875c-.053-.1026-.10432-.20578-.15648-.309-.05215-.10287-.10544-.20523-.15677-.30865-.05045-.10263-.09891-.20581-.14853-.309-.04935-.10257-.09778-.20551-.14627-.309-.04819-.10287-.09836-.2052-.14571-.30869-.04648-.10233-.09068-.20609-.13606-.309-.04591-.10263-.09155-.20554-.136-.30872-.04449-.10287-.08929-.20551-.13295-.309-.04308-.10233-.0842-.20578-.12614-.30872-.04195-.10318-.085-.20551-.12587-.309-.04082-.1026-.08107-.20578-.12074-.30865-.03969-.10263-.07739-.20581-.11594-.309-.03854-.10291-.0788-.20554-.11623-.30872-.03712-.10287-.07257-.20609-.10884-.30893-.03629-.10266-.07144-.20581-.10658-.309-.03516-.10294-.07228-.20526-.10631-.30872-.03372-.10263-.06462-.20605-.0975-.309-.0329-.1026-.06493-.20578-.097-.30865-.03146-.10321-.06577-.20554-.09637-.309-.03033-.10236-.05753-.20605-.087-.30869q-.0442-.15436-.0873-.309c-.02835-.10294-.05841-.20554-.08591-.30872-.02692-.10263-.0513-.20639-.07767-.309q-.03955-.15431-.07767-.30865c-.02522-.10321-.05159-.20581-.076-.309-.02411-.1026-.04507-.20605-.06833-.309-.023-.10287-.0462-.20581-.06831-.30869-.02211-.10318-.04478-.20578-.066-.309-.02068-.10263-.03885-.20609-.059-.30872-.01985-.10315-.04025-.20581-.05925-.309-.01871-.10294-.03827-.20578-.05612-.30872s-.03317-.20605-.0499-.309c-.017-.10284-.0343-.20578-.05017-.309-.01559-.10287-.03175-.20547-.04678-.30865-.01474-.10263-.02719-.20609-.04109-.309-.0136-.10287-.02779-.20551-.04082-.30865-.01274-.10318-.02608-.20581-.0377-.309-.0119-.1026-.021-.20578-.03175-.30872-.01077-.10318-.02182-.20581-.03174-.309-.00964-.10287-.0204-.20578-.02919-.30893-.0088-.10266-.015-.20581-.02269-.30872s-.01559-.20605-.02267-.309c-.00681-.10287-.01445-.20547-.02042-.30865-.006-.10263-.00876-.20612-.01358-.309l-.01363-.30872c-.00368-.10315-.009-.20578-.01247-.30893-.00284-.10266-.00227-.20612-.00424-.309l-.00482-.30872c-.00085-.09952-.00426-.1987-.00426-.29846l.00029-.01053c0-.10315.00339-.20578.00424-.30865q.00169-.15482.00484-.309c.002-.10287.00168-.20605.00452-.30865.00285-.10318.00908-.20581.01277-.309.004-.10318.00879-.20609.0136-.309.0051-.10263.00795-.20609.01361-.30872.006-.10315.01474-.20609.02153-.309.00681-.10318.01474-.20578.0224-.30872.00793-.10287.01389-.20636.02295-.309.00879-.10318.01985-.20581.02977-.309.00992-.10287.021-.20578.03175-.30865.011-.10294.01984-.20609.03174-.309s.02609-.20578.03885-.30865c.01274-.10318.02722-.20612.04111-.309.01389-.1026.02577-.20612.0408-.30872.01474-.10318.03175-.20581.0479-.309.01588-.10315.03291-.20578.0499-.30865.01672-.10294.03206-.20639.0499-.309.01814-.10318.03827-.20581.05727-.309.019-.10287.03912-.20578.05925-.30865.01982-.10294.03825-.20639.05923-.309.02126-.10321.04451-.20578.06662-.30872.02211-.10315.04535-.20609.0686-.30893.02322-.10263.04449-.20636.06857-.30872.02438-.10345.051-.20581.07655-.309.02551-.10287.05161-.20605.07794-.30865.02637-.10294.05048-.20642.07767-.309.0278-.10345.0584-.20581.087-.309q.04253-.15427.08731-.30865c.02948-.10294.05727-.20612.08788-.309.0309-.10318.06491-.20581.09668-.30875.032-.10318.06406-.206.09692-.309s.06491-.20633.09865-.30869c.03432-.10345.07115-.20605.10658-.309.03516-.10287.0703-.20605.10658-.30865.03629-.10318.07257-.20636.11-.309.0377-.10345.07741-.20578.11594-.30872.03883-.10318.07654-.20633.11623-.30893q.05994-.15477.12189-.309c.04138-.10318.08418-.20578.12616-.30872.04251-.10318.083-.20667.12613-.309.04364-.10345.08958-.20578.13408-.30865.04478-.10345.09042-.20612.13634-.309.04564-.10287.08958-.20639.13663-.30869.04736-.10373.09782-.20578.14627-.309s.09694-.20639.14627-.30875c.0499-.10318.09923-.20636.14993-.309.051-.10345.10434-.20581.15677-.30865.05215-.10321.1032-.20667.15648-.309.05388-.10342.10913-.20605.16412-.309q.08249-.15477.167-.30869c.05643-.10291.11057-.20663.16782-.309.05783-.10349.11906-.20581.178-.30872.059-.10315.11766-.20636.178-.309.06039-.10318.121-.20612.18282-.30872.06209-.10345.12587-.20605.18909-.309s.125-.20663.18938-.309c.0649-.10349.13235-.20581.19839-.30869q.09949-.15518.20071-.309c.06773-.10318.13521-.20636.20409-.30865.06946-.10376.14114-.20612.212-.309.0706-.10294.14-.20663.21176-.30872.07286-.10373.148-.20605.222-.309q.1114-.15477.2242-.30893c.0757-.10318.15138-.20612.2282-.30872.07767-.10376.15732-.20605.23642-.309.0788-.10287.15619-.20663.23615-.309.08133-.1037.16553-.20578.248-.30865.08279-.10318.16527-.20663.24892-.309q.12714-.15518.25626-.30869.12968-.15523.26192-.30872c.08815-.10318.17546-.20663.26476-.309.091-.10373.18367-.20605.2758-.309.09184-.10287.18228-.20688.27524-.30865.095-.104.19249-.20609.28857-.309.09639-.10318.19193-.2066.28943-.309.09891-.10345.19925-.20605.29932-.30865q.15141-.15527.30417-.309.15477-.15518.31125-.30872.15816-.15523.31889-.309c.10773-.10318.21542-.20636.3243-.30872Z"/></svg>